<?xml version="1.0" encoding="UTF-8" standalone="no"?>
<svg xmlns:xlink="http://www.w3.org/1999/xlink" viewBox="0 0 640 260" xmlns="http://www.w3.org/2000/svg">
  <title>FIG. 4 — Cable Drive Assembly Detail</title>
      <defs>
        <marker id="arr4" viewBox="0 0 10 10" refX="9" refY="5" markerWidth="6" markerHeight="6" orient="auto">
          <path d="M0,0 L10,5 L0,10 z" fill="#000"/>
        </marker>
      </defs>
      <rect x="20" y="100" width="70" height="50" rx="4" fill="#ffffff" stroke="#000" stroke-width="1.5"/>
      <text x="55" y="124" text-anchor="middle" fill="#000" font-size="9" font-weight="700" font-family="Times,serif">FOC</text>
      <text x="55" y="138" text-anchor="middle" fill="#000" font-size="8" font-weight="600" font-family="Times,serif">DRIVE</text>
      <text x="55" y="94" text-anchor="middle" fill="#000" font-size="10" font-weight="700" font-family="Times,serif">30</text>
      <rect x="110" y="100" width="60" height="50" rx="4" fill="#ffffff" stroke="#000" stroke-width="1.5"/>
      <text x="140" y="124" text-anchor="middle" fill="#000" font-size="9" font-weight="700" font-family="Times,serif">BLDC</text>
      <text x="140" y="138" text-anchor="middle" fill="#000" font-size="8" font-weight="600" font-family="Times,serif">200W</text>
      <text x="140" y="94" text-anchor="middle" fill="#000" font-size="10" font-weight="700" font-family="Times,serif">10</text>
      <rect x="190" y="100" width="60" height="50" rx="4" fill="#ffffff" stroke="#000" stroke-width="1.5"/>
      <text x="220" y="124" text-anchor="middle" fill="#000" font-size="9" font-weight="700" font-family="Times,serif">20:1</text>
      <text x="220" y="138" text-anchor="middle" fill="#000" font-size="8" font-weight="600" font-family="Times,serif">GEAR</text>
      <text x="220" y="94" text-anchor="middle" fill="#000" font-size="10" font-weight="700" font-family="Times,serif">12</text>
      <rect x="270" y="100" width="56" height="50" rx="4" fill="#ffffff" stroke="#000" stroke-width="1.5"/>
      <text x="298" y="124" text-anchor="middle" fill="#000" font-size="8" font-weight="700" font-family="Times,serif">SLIP</text>
      <text x="298" y="138" text-anchor="middle" fill="#000" font-size="8" font-weight="600" font-family="Times,serif">CLUTCH</text>
      <text x="298" y="94" text-anchor="middle" fill="#000" font-size="10" font-weight="700" font-family="Times,serif">36</text>
      <circle cx="360" cy="125" r="22" fill="#ffffff" stroke="#000" stroke-width="1.5"/>
      <circle cx="360" cy="125" r="6" fill="#000"/>
      <text x="360" y="94" text-anchor="middle" fill="#000" font-size="10" font-weight="700" font-family="Times,serif">14</text>
      <circle cx="430" cy="100" r="10" fill="#ffffff" stroke="#000" stroke-width="1.5"/>
      <circle cx="430" cy="100" r="3" fill="#000"/>
      <text x="430" y="86" text-anchor="middle" fill="#000" font-size="10" font-weight="700" font-family="Times,serif">32</text>
      <path d="M382,125 Q400,105 430,100 L480,130 L530,145" fill="none" stroke="#000" stroke-width="2"/>
      <text x="495" y="120" text-anchor="middle" fill="#000" font-size="9" font-weight="700" font-family="Times,serif">34</text>
      <rect x="520" y="138" width="36" height="16" rx="3" fill="#ffffff" stroke="#000" stroke-width="1.5"/>
      <text x="538" y="150" text-anchor="middle" fill="#000" font-size="7" font-weight="700" font-family="Times,serif">LOAD</text>
      <text x="538" y="170" text-anchor="middle" fill="#000" font-size="10" font-weight="700" font-family="Times,serif">16</text>
      <path d="M556,146 L585,160" stroke="#000" stroke-width="1.5"/>
      <path d="M585,152 Q592,160 585,168 L572,174 Q560,168 565,156 Z" fill="#ffffff" stroke="#000" stroke-width="1.5"/>
      <text x="580" y="140" text-anchor="middle" fill="#000" font-size="10" font-weight="700" font-family="Times,serif">38</text>
      <rect x="595" y="160" width="28" height="30" rx="4" fill="#ffffff" stroke="#000" stroke-width="1.2"/>
      <text x="609" y="178" text-anchor="middle" fill="#000" font-size="7" font-weight="700" font-family="Times,serif">CUFF</text>
      <text x="609" y="200" text-anchor="middle" fill="#000" font-size="10" font-weight="700" font-family="Times,serif">18</text>
      <line x1="90" y1="125" x2="110" y2="125" stroke="#000" stroke-width="1.2" marker-end="url(#arr4)"/>
      <line x1="170" y1="125" x2="190" y2="125" stroke="#000" stroke-width="1.2"/>
      <line x1="250" y1="125" x2="270" y2="125" stroke="#000" stroke-width="1.2"/>
      <line x1="326" y1="125" x2="338" y2="125" stroke="#000" stroke-width="1.2"/>
      <line x1="55" y1="100" x2="55" y2="70" stroke="#000" stroke-width="0.8" stroke-dasharray="3,2"/>
      <text x="55" y="62" text-anchor="middle" fill="#000" font-size="7" font-style="italic" font-family="Times,serif">τ* set-point</text>
      <line x1="538" y1="138" x2="538" y2="200" stroke="#000" stroke-width="0.8" stroke-dasharray="3,2"/>
      <line x1="538" y1="200" x2="55" y2="200" stroke="#000" stroke-width="0.8" stroke-dasharray="3,2"/>
      <line x1="55" y1="200" x2="55" y2="150" stroke="#000" stroke-width="0.8" stroke-dasharray="3,2" marker-end="url(#arr4)"/>
      <text x="300" y="215" text-anchor="middle" fill="#000" font-size="8" font-style="italic" font-family="Times,serif">measured force feedback (100 Hz)</text>
    </svg>
