<?xml version="1.0" encoding="UTF-8" standalone="no"?>
<svg xmlns:xlink="http://www.w3.org/1999/xlink" viewBox="0 0 640 320" xmlns="http://www.w3.org/2000/svg">
  <title>FIG. 9 — Multi-Pattern Reconfigurable Platform Geometry</title>
      <rect x="60" y="240" width="520" height="14" rx="3" fill="#ffffff" stroke="#000" stroke-width="1.5"/>
      <text x="320" y="275" text-anchor="middle" fill="#000" font-size="10" font-weight="700" font-family="Times,serif">26</text>
      <text x="320" y="290" text-anchor="middle" fill="#000" font-size="9" font-style="italic" font-family="Times,serif">platform frame</text>
      <rect x="60" y="210" width="520" height="18" rx="3" fill="#ffffff" stroke="#000" stroke-width="1.2" stroke-dasharray="3,3"/>
      <text x="70" y="224" text-anchor="start" fill="#000" font-size="9" font-weight="700" font-family="Times,serif">200</text>
      <text x="180" y="205" text-anchor="middle" fill="#000" font-size="9" font-style="italic" font-family="Times,serif">(linear track for P2)</text>
      <circle cx="120" cy="100" r="16" fill="#ffffff" stroke="#000" stroke-width="2"/>
      <circle cx="120" cy="100" r="5" fill="#000"/>
      <text x="120" y="82" text-anchor="middle" fill="#000" font-size="11" font-weight="700" font-family="Times,serif">P1</text>
      <text x="120" y="134" text-anchor="middle" fill="#000" font-size="9" font-style="italic" font-family="Times,serif">fixed</text>
      <circle cx="380" cy="150" r="14" fill="#ffffff" stroke="#000" stroke-width="2"/>
      <circle cx="380" cy="150" r="4" fill="#000"/>
      <text x="380" y="134" text-anchor="middle" fill="#000" font-size="11" font-weight="700" font-family="Times,serif">P2</text>
      <line x1="380" y1="164" x2="380" y2="210" stroke="#000" stroke-width="1.2"/>
      <rect x="368" y="178" width="24" height="18" rx="3" fill="#ffffff" stroke="#000" stroke-width="1"/>
      <text x="396" y="194" text-anchor="start" fill="#000" font-size="9" font-weight="700" font-family="Times,serif">202</text>
      <path d="M300,150 Q360,150 380,150" fill="none" stroke="#000" stroke-width="0.6" stroke-dasharray="2,2"/>
      <path d="M480,150 Q440,150 394,150" fill="none" stroke="#000" stroke-width="0.6" stroke-dasharray="2,2"/>
      <text x="440" y="142" text-anchor="middle" fill="#000" font-size="8" font-style="italic" font-family="Times,serif">slides &amp; locks</text>
      <path d="M40,240 L70,230 L100,230 L120,116" fill="none" stroke="#000" stroke-width="2"/>
      <path d="M120,116 L180,200 L280,230" fill="none" stroke="#000" stroke-width="2"/>
      <text x="140" y="180" text-anchor="start" fill="#000" font-size="9" font-style="italic" font-family="Times,serif">V1 path (4 patterns)</text>
      <path d="M120,116 L380,134" fill="none" stroke="#000" stroke-width="1.4" stroke-dasharray="6,3"/>
      <path d="M380,164 L440,220" fill="none" stroke="#000" stroke-width="1.4" stroke-dasharray="6,3"/>
      <text x="260" y="118" text-anchor="start" fill="#000" font-size="9" font-style="italic" font-family="Times,serif">V2 path (3 patterns)</text>
      <rect x="20" y="50" width="200" height="30" rx="4" fill="#ffffff" stroke="#000" stroke-width="1"/>
      <text x="120" y="70" text-anchor="middle" fill="#000" font-size="9" font-weight="700" font-family="Times,serif">V1: hamstring, adductor,</text>
      <rect x="20" y="34" width="200" height="18" rx="2" fill="none" stroke="none"/>
      <text x="120" y="46" text-anchor="middle" fill="#000" font-size="9" font-weight="700" font-family="Times,serif">(supine / seated on frame 26)</text>
      <text x="120" y="84" text-anchor="middle" fill="#000" font-size="9" font-weight="700" font-family="Times,serif">hip-flexor, ankle (4)</text>
      <rect x="420" y="50" width="200" height="46" rx="4" fill="#ffffff" stroke="#000" stroke-width="1"/>
      <text x="520" y="68" text-anchor="middle" fill="#000" font-size="9" font-weight="700" font-family="Times,serif">V2: shoulder capsular,</text>
      <text x="520" y="82" text-anchor="middle" fill="#000" font-size="9" font-weight="700" font-family="Times,serif">thoracic rotation,</text>
      <text x="520" y="94" text-anchor="middle" fill="#000" font-size="9" font-weight="700" font-family="Times,serif">seated spinal ext. (3)</text>
    </svg>
